<svg width="24" height="25" viewBox="0 0 24 25" fill="none" xmlns="http://www.w3.org/2000/svg">
<path d="M21 6.5V21.5H3V14.5L8 10.5L13 14.5L21 6.5Z" fill="#D4D6DC"/>
<path d="M3 14.5L8 10.5L13 14.5L21 6.5" stroke="#6988FF" stroke-width="1.5" stroke-linecap="round"/>
<path d="M19 7C19 6.17165 19.6715 5.5 20.5 5.5C21.3285 5.5 22 6.17165 22 7C22 7.82835 21.3285 8.5 20.5 8.5C19.6715 8.5 19 7.82835 19 7Z" fill="#6988FF"/>
<path d="M11.5 14.5C11.5 13.6716 12.1715 13 13 13C13.8285 13 14.5 13.6716 14.5 14.5C14.5 15.3284 13.8285 16 13 16C12.1715 16 11.5 15.3284 11.5 14.5Z" fill="#6988FF"/>
<path d="M6.5 10.5C6.5 9.67165 7.1715 9 8.00005 9C8.8285 9 9.5 9.67165 9.5 10.5C9.5 11.3284 8.8285 12 8.00005 12C7.1715 12 6.5 11.3284 6.5 10.5Z" fill="#6988FF"/>
<path d="M1.5 14.5C1.5 13.6716 2.1715 13 3.00005 13C3.8285 13 4.5 13.6716 4.5 14.5C4.5 15.3284 3.8285 16 3.00005 16C2.1715 16 1.5 15.3284 1.5 14.5Z" fill="#6988FF"/>
</svg>
