<svg width="24" height="25" viewBox="0 0 24 25" fill="none" xmlns="http://www.w3.org/2000/svg">
<path d="M20.998 20.5002C20.998 21.0524 20.5531 21.5 20.0048 21.5H3.99329C3.44471 21.5 3 21.0563 3 20.5002V17.4998C3 16.9476 3.4449 16.5 3.99329 16.5H20.0048C20.5533 16.5 20.998 16.9437 20.998 17.4998V20.5002Z" fill="#6988FF"/>
<path d="M18 14.0002C18 14.5524 17.5511 15 16.9925 15H4.00748C3.45107 15 3 14.5563 3 14.0002V10.9998C3 10.4476 3.44892 10 4.00748 10H16.9925C17.5489 10 18 10.4437 18 10.9998V14.0002Z" fill="#D4D6DC"/>
<path d="M15 7.50019C15 8.05237 14.5442 8.5 13.9975 8.5H4.00247C3.44882 8.5 3 8.05628 3 7.50019V4.49981C3 3.94763 3.45576 3.5 4.00247 3.5H13.9975C14.5512 3.5 15 3.94372 15 4.49981V7.50019Z" fill="#BDBFC4"/>
</svg>
