<svg width="24" height="25" viewBox="0 0 24 25" fill="none" xmlns="http://www.w3.org/2000/svg">
<path d="M8.60613 16.3679C8.60613 17.9437 7.34333 19.2357 5.80311 19.2357C4.2628 19.2357 3 17.9437 3 16.3679C3 14.792 4.2628 13.5 5.80311 13.5C7.34333 13.5 8.60613 14.792 8.60613 16.3679Z" fill="#6988FF"/>
<path d="M9.01871 9.40892C9.01871 10.521 8.09647 11.4646 7.00933 11.4646C5.92212 11.4646 5 10.521 5 9.40892C5 8.29651 5.92212 7.5 7.00933 7.5C8.09647 7.5 9.01871 8.29651 9.01871 9.40892Z" fill="#6988FF"/>
<path d="M12.7249 17.3824C12.7249 17.8689 12.338 18.2648 11.8625 18.2648C11.3869 18.2648 11 17.8689 11 17.3824C11 16.8959 11.3869 16.5 11.8625 16.5C12.338 16.5 12.7249 16.8959 12.7249 17.3824Z" fill="#6988FF"/>
<path d="M14.8515 11.9266C14.8515 13.2968 13.7112 14.4635 12.3719 14.4635C11.0326 14.4635 10 13.2968 10 11.9266C10 10.5564 11.0326 9.5 12.3719 9.5C13.7112 9.5 14.8515 10.5564 14.8515 11.9266Z" fill="#6988FF"/>
<path d="M12 5.52327C12 6.0871 11.5512 6.54617 11 6.54617C10.4486 6.54617 10 6.0871 10 5.52327C10 4.95902 10.4486 4.5 11 4.5C11.5512 4.5 12 4.95902 12 5.52327Z" fill="#6988FF"/>
<path d="M19.1265 10.0442C19.1265 10.9067 18.3525 11.5883 17.5093 11.5883C16.6663 11.5883 16 10.9067 16 10.0442C16 9.18164 16.6663 8.5 17.5093 8.5C18.3525 8.5 19.1265 9.18164 19.1265 10.0442Z" fill="#6988FF"/>
<path d="M19.9593 16.0369C19.9593 17.4277 18.839 18.4634 17.4797 18.4634C16.1203 18.4634 15 17.4277 15 16.0369C15 14.6461 16.1203 13.5 17.4797 13.5C18.839 13.5 19.9593 14.6461 19.9593 16.0369Z" fill="#6988FF"/>
</svg>
