<svg width="24" height="25" viewBox="0 0 24 25" fill="none" xmlns="http://www.w3.org/2000/svg">
<path d="M21 7.50019C21 8.05237 20.5551 8.5 20.0066 8.5H3.9934C3.44476 8.5 3 8.05628 3 7.50019V4.49981C3 3.94763 3.44495 3.5 3.9934 3.5H20.0066C20.5552 3.5 21 3.94372 21 4.49981V7.50019Z" fill="#D4D6DC"/>
<path d="M19 8.5H4.00087C3.44811 8.5 3 8.05628 3 7.50019V4.49981C3 3.94763 3.44463 3.5 4.00087 3.5H19V8.5Z" fill="#6FDB73"/>
<path d="M8.99609 8V4" stroke="white" stroke-linecap="square"/>
<path d="M21 14.0002C21 14.5524 20.5551 15 20.0066 15H3.9934C3.44476 15 3 14.5563 3 14.0002V10.9998C3 10.4476 3.44495 10 3.9934 10H20.0066C20.5552 10 21 10.4437 21 10.9998V14.0002Z" fill="#D4D6DC"/>
<path d="M13 15H3.9954C3.44565 15 3 14.5563 3 14.0002V10.9998C3 10.4476 3.45566 10 3.9954 10H13V15Z" fill="#FF5959"/>
<path d="M16.3369 14.5V10.5" stroke="white" stroke-linecap="square"/>
<path d="M21.0732 20.5002C21.0732 21.0524 20.6283 21.5 20.0798 21.5H4.06664C3.518 21.5 3.07324 21.0563 3.07324 20.5002V17.4998C3.07324 16.9476 3.51819 16.5 4.06664 16.5H20.0798C20.6285 16.5 21.0732 16.9437 21.0732 17.4998V20.5002Z" fill="#D4D6DC"/>
<path d="M16.0435 21.5H4.00184C3.44854 21.5 3 21.0563 3 20.5002V17.4998C3 16.9476 3.44899 16.5 4.00184 16.5H16.0435V21.5Z" fill="#F9CF6D"/>
<path d="M8.25 21V17" stroke="white" stroke-linecap="square"/>
</svg>
