<svg width="24" height="25" viewBox="0 0 24 25" fill="none" xmlns="http://www.w3.org/2000/svg">
<path d="M6.5 3.5V21.5" stroke="#6FDB73" stroke-width="1.5" stroke-linecap="round"/>
<path d="M4 15.5L4 7.5C4 6.94772 4.44772 6.5 5 6.5H8C8.55228 6.5 9 6.94772 9 7.5V15.5C9 16.0523 8.55228 16.5 8 16.5H5C4.44772 16.5 4 16.0523 4 15.5Z" fill="#6FDB73"/>
<path d="M17.5 3.5V21.5" stroke="#FF5959" stroke-width="1.5" stroke-linecap="round"/>
<path d="M15 17.5V13.5C15 12.9477 15.4477 12.5 16 12.5H19C19.5523 12.5 20 12.9477 20 13.5V17.5C20 18.0523 19.5523 18.5 19 18.5H16C15.4477 18.5 15 18.0523 15 17.5Z" fill="#FF5959"/>
</svg>
