<svg width="24" height="25" viewBox="0 0 24 25" fill="none" xmlns="http://www.w3.org/2000/svg">
<path d="M13.438 13.3159C13.623 13.3759 13.782 13.4989 13.887 13.6619L14.04 13.9019C14.157 14.0839 14.354 14.2009 14.57 14.2179L14.603 14.2189C14.786 14.2339 14.911 14.4089 14.866 14.5869L14.588 15.6579C14.537 15.8569 14.591 16.0689 14.732 16.2209L15.803 17.3699C15.935 17.5129 15.991 17.7119 15.952 17.9029L15.579 19.7159C15.572 19.7559 15.567 19.7969 15.567 19.8379V22.2719C15.567 22.4269 15.626 22.5759 15.734 22.6879C16.087 23.0609 16.715 22.8499 16.772 22.3389L16.887 21.3059C16.9 21.1829 16.952 21.0679 17.033 20.9739L18.789 18.9679C18.837 18.9109 18.897 18.8649 18.963 18.8299L19.943 18.3179C20.075 18.2499 20.176 18.1359 20.229 17.9989L20.821 16.4449C20.941 16.1279 20.777 15.7739 20.457 15.6599L19.338 15.2649C19.21 15.2199 19.103 15.1349 19.03 15.0219L18.639 14.4139L16.457 13.5409C16.243 13.4549 16.005 13.4439 15.784 13.5089L14.864 13.7759C14.617 13.8469 14.368 13.6799 14.337 13.4269L14.318 13.2649C14.299 13.0969 14.147 12.9769 13.98 12.9949C13.866 13.0079 13.76 12.9339 13.731 12.8229L13.6542 12.6729L13.438 13.3159Z" fill="#D4D6DC"/>
<path fill-rule="evenodd" clip-rule="evenodd" d="M8.75244 9.0073V9.4183C8.75244 9.5423 8.79644 9.9633 8.87744 10.0573L11.3214 12.6273L13.4374 13.3153C13.5604 13.3553 13.6444 13.1343 13.6874 12.6513C13.6444 12.4773 13.4784 12.3633 13.3004 12.3843L13.0614 12.4123C12.8264 12.4403 12.5994 12.3073 12.5094 12.0873L12.4314 11.8993C12.3374 11.6723 12.4154 11.4103 12.6174 11.2703L12.7974 11.1453C12.9244 11.0573 13.0834 11.0303 13.2314 11.0703L14.0764 11.2973C14.2974 11.3573 14.5334 11.2643 14.6554 11.0693L15.2874 10.0573L15.9264 9.1233C15.9454 9.0953 16.0463 9.0312 16.0693 9.0072L8.75244 9.0073Z" fill="#A2B6FF"/>
<path fill-rule="evenodd" clip-rule="evenodd" d="M4.10663 3.21732C4.19213 3.17607 4.28775 3.15957 4.38169 3.16825L4.47463 3.18532L6.69563 3.81332C6.77288 3.83432 6.8535 3.83845 6.93159 3.82401L7.00863 3.80332L7.96363 3.47132C8.04838 3.44207 8.13875 3.43476 8.22589 3.44981L8.31163 3.47232L10.3916 4.21532C10.4323 4.22999 10.4747 4.23932 10.5178 4.24362L10.5826 4.24632L11.6486 4.21532V9.00732H8.75263V8.35032C8.75263 8.25732 8.72788 8.16657 8.68175 8.08736L8.62863 8.01232L7.28163 6.42432C7.24096 6.37699 7.19229 6.33721 7.138 6.30677L7.05263 6.26832L5.67763 5.79632C5.53429 5.74632 5.37846 5.7623 5.24948 5.83556L5.17563 5.88632L4.69463 6.28232C4.57046 6.38482 4.40671 6.42344 4.25257 6.39006L4.16163 6.36132L3.65763 6.15232C3.39663 6.04342 3.27495 5.75065 3.36694 5.49417L3.40563 5.41032C3.48396 5.27282 3.49493 5.10824 3.43912 4.96345L3.39763 4.87932L3.07663 4.35032C2.93173 4.11272 2.99986 3.80951 3.21759 3.65356L3.29563 3.60732L4.10663 3.21732ZM8.92463 2.66422C9.03605 2.53222 9.21067 2.47516 9.37604 2.51004L9.45763 2.53522L10.1046 2.80422C10.1546 2.82556 10.2073 2.83711 10.2608 2.83978L10.3416 2.83722L10.8416 2.77322C10.9696 2.75722 11.097 2.79498 11.1945 2.87473L11.2616 2.94222L11.2996 2.99022C11.5271 3.27251 11.3571 3.68241 11.0194 3.73952L10.9386 3.74622H9.97163C9.92696 3.74622 9.88274 3.73956 9.84014 3.72682L9.77763 3.70322L9.08563 3.38622C8.80563 3.25822 8.72563 2.89922 8.92463 2.66422Z" fill="#6988FF"/>
<path fill-rule="evenodd" clip-rule="evenodd" d="M12.8774 3.91128C13.0542 3.79753 13.2784 3.80245 13.4489 3.91533L13.5184 3.97028L13.7144 4.15528C13.9286 4.35598 13.9314 4.68709 13.7396 4.89273L13.6684 4.95628L13.0504 5.41328C12.8558 5.55817 12.7883 5.81368 12.8776 6.03091L12.9184 6.11028L13.1324 6.45328C13.1759 6.52228 13.2341 6.58003 13.3026 6.62231L13.3744 6.65928L14.1814 6.99728C14.511 7.13574 14.8678 6.91207 14.9042 6.57325L14.9064 6.48628L14.8774 5.95328C14.8602 5.65237 15.0991 5.40601 15.3899 5.40202L15.4784 5.40828L16.7754 5.60728C16.8986 5.62648 17.0103 5.6892 17.091 5.78213L17.1454 5.85728L18.1074 7.47328C18.2541 7.71898 18.174 8.03029 17.943 8.17976L17.8604 8.22328L16.1564 8.93628L16.1114 8.96916L16.0694 9.00728H11.6484V4.21528L12.2934 4.19728C12.3568 4.19528 12.4192 4.18173 12.4775 4.1578L12.5614 4.11428L12.8774 3.91128ZM14.8489 2.67338C14.8876 2.67271 14.9263 2.68005 14.9623 2.69449L15.0139 2.72138L16.4479 3.69938C16.4779 3.72005 16.5035 3.7456 16.5234 3.77516L16.5489 3.82238L16.9289 4.71938C17.0072 4.90478 16.8725 5.10152 16.6844 5.10986L16.6199 5.10538L15.6979 4.93738C15.5237 4.90627 15.4269 4.72662 15.4834 4.56909L15.5119 4.51138C15.5882 4.39052 15.5609 4.23661 15.4584 4.14787L15.4009 4.10938L13.7839 3.30138C13.7284 3.27363 13.6662 3.26557 13.6065 3.27677L13.5479 3.29438L12.7229 3.64838C12.6146 3.69505 12.4917 3.6681 12.4121 3.58665L12.3699 3.53138L12.1479 3.15138C12.0528 2.98783 12.145 2.78555 12.3162 2.73911L12.3839 2.72938L14.8489 2.67338Z" fill="#546FD4"/>
</svg>
