<svg width="24" height="25" viewBox="0 0 24 25" fill="none" xmlns="http://www.w3.org/2000/svg">
<path d="M16.9998 9.5H20.0002C20.5563 9.5 21 9.94882 21 10.5025V20.4975C21 21.0442 20.5524 21.5 20.0002 21.5H16.9998C16.4437 21.5 16 21.0512 16 20.4975V10.5025C16 9.95576 16.4476 9.5 16.9998 9.5Z" fill="#BDBFC4"/>
<path d="M10.4998 6.5H13.5002C14.0563 6.5 14.5 6.95107 14.5 7.50748V20.4925C14.5 21.0511 14.0524 21.5 13.5002 21.5H10.4998C9.94372 21.5 9.5 21.0489 9.5 20.4925V7.50748C9.5 6.94892 9.94763 6.5 10.4998 6.5Z" fill="#D4D6DC"/>
<path d="M3.99981 3.50195H7.00019C7.55628 3.50195 8 3.94666 8 4.49524V20.5067C8 21.0551 7.55237 21.5 7.00019 21.5H3.99981C3.44372 21.5 3 21.0553 3 20.5067L3 4.49524C3 3.94685 3.44763 3.50195 3.99981 3.50195Z" fill="#6988FF"/>
</svg>
