<svg width="24" height="25" viewBox="0 0 24 25" fill="none" xmlns="http://www.w3.org/2000/svg">
<path d="M13.5002 3.5C14.0524 3.5 14.5 3.9449 14.5 4.49329V20.5048C14.5 21.0533 14.0563 21.498 13.5002 21.498H10.4998C9.94763 21.498 9.5 21.0531 9.5 20.5048L9.5 4.49329C9.5 3.94471 9.94372 3.5 10.4998 3.5H13.5002Z" fill="#6988FF"/>
<path d="M20.0002 10.5C20.5524 10.5 21 10.9448 21 11.4956V20.5044C21 21.0543 20.5563 21.5 20.0002 21.5H16.9998C16.4476 21.5 16 21.0552 16 20.5044V11.4956C16 10.9457 16.4437 10.5 16.9998 10.5H20.0002Z" fill="#6988FF"/>
<path d="M7.00019 6.5C7.55237 6.5 8 6.94892 8 7.50748V20.4925C8 21.0489 7.55628 21.5 7.00019 21.5H3.99981C3.44763 21.5 3 21.0511 3 20.4925L3 7.50748C3 6.95107 3.44372 6.5 3.99981 6.5H7.00019Z" fill="#6988FF"/>
<path d="M5.5 14.5L12 10.5L18.5 18.5V18.5" stroke="#BDBFC4" stroke-width="1.5" stroke-linecap="round" stroke-linejoin="round"/>
<path d="M10.5 10.6892C10.5 9.86086 11.1715 9.18921 12 9.18921C12.8285 9.18921 13.5 9.86086 13.5 10.6892C13.5 11.5176 12.8285 12.1892 12 12.1892C11.1715 12.1892 10.5 11.5176 10.5 10.6892Z" fill="#BDBFC4"/>
<path d="M4 14.5C4 13.6716 4.6715 13 5.50005 13C6.3285 13 7 13.6716 7 14.5C7 15.3284 6.3285 16 5.50005 16C4.6715 16 4 15.3284 4 14.5Z" fill="#BDBFC4"/>
<path d="M17 18.5C17 17.6716 17.6715 17 18.5 17C19.3285 17 20 17.6716 20 18.5C20 19.3284 19.3285 20 18.5 20C17.6715 20 17 19.3284 17 18.5Z" fill="#BDBFC4"/>
</svg>
