<svg width="24" height="25" viewBox="0 0 24 25" fill="none" xmlns="http://www.w3.org/2000/svg">
<path d="M15.9108 16.1119C14.9302 17.1973 13.5216 17.8802 11.9541 17.8802C8.99184 17.8802 6.59078 15.4489 6.59078 12.4495C6.59078 9.45021 8.99184 7.01846 11.9541 7.01846C12.9541 7.01846 13.8883 7.29962 14.69 7.78269L16.6971 4.93271C15.3099 4.02736 13.6604 3.5 11.8875 3.5C6.97913 3.5 3 7.52889 3 12.5002C3 17.4707 6.97913 21.5 11.8875 21.5C14.5082 21.5 16.8621 20.3506 18.488 18.5247L15.9108 16.1119Z" fill="#6988FF"/>
<path d="M16.0034 7.4742C16.6752 8.02737 17.2297 8.71757 17.6253 9.50611L21.4797 8.15347C20.7773 6.57732 19.7055 5.20739 18.3754 4.15369L16.0034 7.4742Z" fill="#BDBFC4"/>
<path d="M17.9191 10.4203C18.1022 11.0119 18.2031 11.6409 18.2031 12.2939C18.2031 13.6408 17.7827 14.8869 17.0703 15.9094L20.1854 18.8257C21.5069 17.0498 22.2903 14.8413 22.2903 12.4465C22.2903 11.2679 22.0965 10.1364 21.7458 9.07739L17.9191 10.4203Z" fill="#D4D6DC"/>
</svg>
