<svg width="24" height="25" viewBox="0 0 24 25" fill="none" xmlns="http://www.w3.org/2000/svg">
<path d="M9 16.5H15L12.8944 20.7111C12.6474 21.2051 12.0468 21.4053 11.5528 21.1584C11.3593 21.0616 11.2023 20.9047 11.1056 20.7111L9 16.5Z" fill="#BDBFC4"/>
<path d="M9 16.5L6 10.5L18 10.5L15 16.5H9Z" fill="#D4D6DC"/>
<path d="M17.9999 10.5H5.99986L3.72347 5.94721C3.47648 5.45324 3.6767 4.85256 4.17068 4.60557C4.30954 4.53615 4.46265 4.5 4.61789 4.5H19.3818C19.9341 4.5 20.3818 4.94772 20.3818 5.5C20.3818 5.65525 20.3457 5.80836 20.2763 5.94721L17.9999 10.5Z" fill="#6988FF"/>
</svg>
