<svg width="24" height="25" viewBox="0 0 24 25" fill="none" xmlns="http://www.w3.org/2000/svg">
<path d="M3 11.5H21V16.5H3L3 11.5Z" fill="#BBBBBB"/>
<path d="M3 16.5H21V20.5C21 21.0523 20.5523 21.5 20 21.5H4C3.44772 21.5 3 21.0523 3 20.5V16.5Z" fill="#D4D6DC"/>
<path d="M3 6.5H21V11.5H3L3 6.5Z" fill="#D4D6DC"/>
<path d="M16 9V8C15.4477 8 15 8.44772 15 9H16ZM16 9H15C15 9.55228 15.4477 10 16 10V9ZM19 9H16V10H19V9ZM19 9V10C19.5523 10 20 9.55228 20 9H19ZM19 9H20C20 8.44772 19.5523 8 19 8V9ZM16 9H19V8H16V9ZM16 13C15.4477 13 15 13.4477 15 14H16V13ZM19 13H16V14H19V13ZM20 14C20 13.4477 19.5523 13 19 13V14H20ZM19 15C19.5523 15 20 14.5523 20 14H19V15ZM16 15H19V14H16V15ZM15 14C15 14.5523 15.4477 15 16 15V14H15ZM5 19V18C4.44772 18 4 18.4477 4 19H5ZM5 19H4C4 19.5523 4.44772 20 5 20V19ZM8 19H5V20H8V19ZM8 19V20C8.55228 20 9 19.5523 9 19H8ZM8 19H9C9 18.4477 8.55228 18 8 18V19ZM5 19H8V18H5V19ZM10.5 18C9.94771 18 9.5 18.4477 9.5 19H10.5V18ZM13.5 18H10.5V19H13.5V18ZM14.5 19C14.5 18.4477 14.0523 18 13.5 18V19H14.5ZM13.5 20C14.0523 20 14.5 19.5523 14.5 19H13.5V20ZM10.5 20H13.5V19H10.5V20ZM9.5 19C9.5 19.5523 9.94771 20 10.5 20V19H9.5ZM16 18C15.4477 18 15 18.4477 15 19H16V18ZM19 18H16V19H19V18ZM20 19C20 18.4477 19.5523 18 19 18V19H20ZM19 20C19.5523 20 20 19.5523 20 19H19V20ZM16 20H19V19H16V20ZM15 19C15 19.5523 15.4477 20 16 20V19H15ZM10.5 14V13C9.94771 13 9.5 13.4477 9.5 14H10.5ZM10.5 14H9.5C9.5 14.5523 9.94771 15 10.5 15V14ZM13.5 14H10.5V15H13.5V14ZM13.5 14V15C14.0523 15 14.5 14.5523 14.5 14H13.5ZM13.5 14H14.5C14.5 13.4477 14.0523 13 13.5 13V14ZM10.5 14H13.5V13H10.5V14ZM5 13C4.44772 13 4 13.4477 4 14H5V13ZM8 13H5V14H8V13ZM9 14C9 13.4477 8.55228 13 8 13V14H9ZM8 15C8.55228 15 9 14.5523 9 14H8V15ZM5 15H8V14H5V15ZM4 14C4 14.5523 4.44772 15 5 15V14H4ZM10.5 8C9.94771 8 9.5 8.44772 9.5 9H10.5V8ZM13.5 8H10.5V9H13.5V8ZM14.5 9C14.5 8.44772 14.0523 8 13.5 8V9H14.5ZM13.5 10C14.0523 10 14.5 9.55228 14.5 9H13.5V10ZM10.5 10H13.5V9H10.5V10ZM9.5 9C9.5 9.55228 9.94771 10 10.5 10V9H9.5ZM5 9V8C4.44772 8 4 8.44772 4 9H5ZM5 9H4C4 9.55228 4.44772 10 5 10V9ZM8 9H5V10H8V9ZM8 9V10C8.55228 10 9 9.55228 9 9H8ZM8 9H9C9 8.44772 8.55228 8 8 8V9ZM5 9H8V8H5V9Z" fill="#5E5F62"/>
<path d="M4 3.5H20C20.5523 3.5 21 3.94772 21 4.5V6.5H3V4.5C3 3.94772 3.44772 3.5 4 3.5Z" fill="#6988FF"/>
</svg>
