<svg width="24" height="25" viewBox="0 0 24 25" fill="none" xmlns="http://www.w3.org/2000/svg">
<path fill-rule="evenodd" clip-rule="evenodd" d="M8.28263 2.32183C8.11759 2.28663 7.94337 2.34379 7.83144 2.47606C7.63294 2.71064 7.71304 3.06993 7.99243 3.19799L8.68465 3.5153L8.74695 3.53858C8.78943 3.55108 8.83359 3.55748 8.87813 3.55748H9.84531L9.92612 3.55079C10.2639 3.4937 10.4341 3.08401 10.2068 2.80196L10.1683 2.7541L10.1011 2.68634C10.0035 2.60632 9.87619 2.56856 9.74828 2.58476L9.24843 2.64824L9.16799 2.65143C9.11449 2.64891 9.06161 2.63712 9.01177 2.61641L8.36405 2.3472L8.28263 2.32183ZM13.7562 2.48492C13.7952 2.48402 13.8337 2.49128 13.8694 2.50598L13.9205 2.53351L15.3552 3.51101C15.385 3.53123 15.4103 3.55689 15.4302 3.58646L15.4557 3.63357L15.8356 4.53152C15.9138 4.7164 15.7791 4.91293 15.5914 4.92127L15.527 4.91681L14.6052 4.74921C14.4309 4.71753 14.3346 4.53791 14.3904 4.38033L14.4187 4.3226C14.4952 4.20229 14.4682 4.0479 14.3652 3.95937L14.3074 3.92106L12.6913 3.11297C12.6359 3.08531 12.5735 3.07698 12.5138 3.08824L12.4553 3.10605L11.6299 3.45983C11.5214 3.50629 11.3982 3.47935 11.3189 3.3983L11.277 3.34333L11.0552 2.96303C10.9595 2.79899 11.0515 2.59716 11.2232 2.55093L11.2911 2.54127L13.7562 2.48492ZM3.38187 2.99696L5.60217 3.62442C5.7053 3.65358 5.8149 3.65033 5.91612 3.61511L6.87122 3.2829C6.98387 3.24374 7.10649 3.24422 7.21883 3.28436L9.29864 4.02714C9.3598 4.04899 9.42449 4.05924 9.48942 4.0574L11.2007 4.0085C11.2958 4.00577 11.3884 3.97713 11.4685 3.92567L11.7845 3.72253C11.9864 3.59274 12.2507 3.61708 12.4255 3.78157L12.6222 3.96674C12.8595 4.19004 12.8369 4.5736 12.5751 4.76756L11.9577 5.22488C11.7385 5.38719 11.681 5.69076 11.8256 5.92209L12.0401 6.26527C12.0973 6.3569 12.1816 6.42855 12.2812 6.47031L13.089 6.80906C13.4451 6.95839 13.8346 6.68346 13.8132 6.29796L13.7836 5.76518C13.7652 5.43349 14.0568 5.16896 14.3851 5.21948L15.6825 5.41905C15.8368 5.44281 15.9724 5.53423 16.0523 5.66839L17.0147 7.28523C17.1773 7.55835 17.0605 7.91213 16.7673 8.03486L15.0632 8.74824C14.9703 8.78713 14.8905 8.85209 14.8336 8.93524L14.1947 9.86907L13.5621 10.8812C13.4402 11.0763 13.205 11.1687 12.9829 11.1089L12.1388 10.8817C11.9903 10.8417 11.8317 10.8691 11.7053 10.9566L11.5247 11.0817C11.3226 11.2216 11.2453 11.4833 11.3388 11.7106L11.4163 11.8988C11.5069 12.1188 11.7328 12.2516 11.9691 12.2238L12.2078 12.1958C12.3858 12.1748 12.5516 12.2893 12.5951 12.4631L12.6378 12.634C12.6611 12.7272 12.7389 12.7942 12.8305 12.8065L12.8868 12.8071C13.0542 12.7886 13.2052 12.9086 13.2249 13.0758L13.2439 13.2379C13.2738 13.4918 13.5246 13.6581 13.7702 13.5869L14.6901 13.3198C14.912 13.2554 15.149 13.267 15.3635 13.3528L17.546 14.2258L17.9367 14.8336C18.0093 14.9464 18.1173 15.032 18.2439 15.0766L19.3637 15.4719C19.6839 15.5849 19.8481 15.9394 19.7272 16.2567L19.1358 17.8094C19.0831 17.9476 18.9817 18.0616 18.8506 18.1301L17.8699 18.6417C17.8035 18.6763 17.7441 18.7231 17.6947 18.7795L15.9394 20.7857C15.8581 20.8785 15.8072 20.9941 15.7935 21.1168L15.6787 22.1502C15.622 22.6609 14.9941 22.8722 14.6401 22.4996C14.5334 22.3873 14.474 22.2383 14.474 22.0834V19.6492C14.474 19.6084 14.4781 19.5677 14.4863 19.5277L14.8582 17.7146C14.8975 17.5232 14.8417 17.3245 14.7085 17.1815L13.6383 16.0319C13.4978 15.881 13.4439 15.6689 13.4954 15.4692L13.7719 14.3979C13.8176 14.2207 13.6922 14.0453 13.5098 14.0313L13.4768 14.0288C13.2605 14.0121 13.0645 13.8952 12.9473 13.7127L12.7937 13.4739C12.6883 13.3099 12.5295 13.1874 12.3442 13.1271L10.229 12.4384L7.78451 9.56876C7.70393 9.47419 7.65971 9.35399 7.65971 9.22973V8.16192C7.65971 8.03801 7.61569 7.91816 7.53553 7.82369L6.18866 6.23632C6.12785 6.16464 6.04883 6.11068 5.95997 6.08014L4.58495 5.60751C4.41311 5.54843 4.22293 5.58282 4.08267 5.69834L3.6018 6.0943C3.45234 6.21741 3.24709 6.24782 3.06836 6.17333L2.56502 5.96361C2.30377 5.85477 2.18161 5.56201 2.27352 5.30549L2.31218 5.22163C2.40658 5.05644 2.40378 4.85296 2.30484 4.6904L1.98309 4.16185C1.82245 3.89793 1.9245 3.55302 2.20289 3.419L3.01289 3.029C3.12786 2.97366 3.25907 2.96226 3.38187 2.99696Z" fill="#D4D6DC"/>
<path fill-rule="evenodd" clip-rule="evenodd" d="M17.4027 14.2267C18.7086 14.2267 19.7672 15.2853 19.7672 16.5912C19.7672 17.8973 18.7086 18.956 17.4027 18.956C16.0963 18.956 15.0376 17.8973 15.0376 16.5912C15.0376 15.2853 16.0963 14.2267 17.4027 14.2267ZM9.67103 4.49683C11.0333 4.49683 12.1733 5.46531 12.439 6.74988L12.5574 6.74387C13.81 6.74387 14.8294 7.76297 14.8294 9.01572C14.8294 10.2685 13.81 11.2876 12.5574 11.2876C11.6651 11.2876 10.8935 10.769 10.5221 10.0187C10.2536 10.1037 9.96749 10.1501 9.67103 10.1501C8.11259 10.1501 6.84473 8.88194 6.84473 7.32346C6.84473 5.76482 8.11259 4.49683 9.67103 4.49683Z" fill="#6988FF"/>
</svg>
