<svg width="24" height="25" viewBox="0 0 24 25" fill="none" xmlns="http://www.w3.org/2000/svg">
<path fill-rule="evenodd" clip-rule="evenodd" d="M19.7943 11.4926C19.7943 12.0887 19.4486 12.4941 18.8942 12.4941C18.3458 12.4941 18 12.0887 18 11.4926C18 10.8965 18.3458 10.4911 18.8942 10.4911C19.4486 10.4911 19.7943 10.8965 19.7943 11.4926ZM18.608 14.1453L21.07 10.6222C21.1118 10.5567 21.1714 10.5269 21.231 10.5269C21.3502 10.5269 21.4337 10.6103 21.4337 10.7117C21.4337 10.7593 21.4218 10.8011 21.386 10.8547L18.924 14.3778C18.8823 14.4434 18.8227 14.4732 18.763 14.4732C18.6438 14.4732 18.5604 14.3897 18.5604 14.2884C18.5604 14.2407 18.5723 14.199 18.608 14.1453ZM18.4232 11.4926C18.4232 11.8741 18.6021 12.0887 18.8942 12.0887C19.1923 12.0887 19.3711 11.8741 19.3711 11.4926C19.3711 11.117 19.1923 10.8965 18.8942 10.8965C18.6021 10.8965 18.4232 11.117 18.4232 11.4926ZM21.0999 12.506C21.6542 12.506 22 12.9114 22 13.5075C22 14.1036 21.6542 14.509 21.0999 14.509C20.5514 14.509 20.2057 14.1036 20.2057 13.5075C20.2057 12.9114 20.5514 12.506 21.0999 12.506ZM21.0999 14.1036C21.3979 14.1036 21.5768 13.889 21.5768 13.5075C21.5768 13.1319 21.3979 12.9114 21.0999 12.9114C20.8077 12.9114 20.6289 13.1319 20.6289 13.5075C20.6289 13.889 20.8077 14.1036 21.0999 14.1036Z" fill="#6988FF"/>
<path fill-rule="evenodd" clip-rule="evenodd" d="M3.53061 13.8061L4.32653 12.949L6.23469 15.9286H8.05612L5.34184 11.801L7.97959 8.5H6.09694L4.20408 10.9439L3.53061 11.8673V8.5H2V15.9286H3.53061V13.8061ZM10.1633 15.9286V13.3112H11.5051C12.3861 13.3112 13.0757 13.1012 13.574 12.6811C14.0723 12.2611 14.3214 11.6871 14.3214 10.9592C14.3214 10.4796 14.2075 10.0519 13.9796 9.67602C13.7517 9.30017 13.426 9.01021 13.0026 8.80612C12.5791 8.60204 12.0884 8.5 11.5306 8.5H8.63265V15.9286H10.1633ZM10.1633 12.0714H11.5306C11.9354 12.0714 12.244 11.9762 12.4566 11.7857C12.6692 11.5952 12.7755 11.3231 12.7755 10.9694C12.7755 10.6054 12.6684 10.3112 12.4541 10.0867C12.2398 9.86224 11.9439 9.7466 11.5663 9.7398H10.1633V12.0714ZM15.4694 15.9286H17V8.5H15.4694V15.9286Z" fill="#D4D6DC"/>
</svg>
