<svg width="24" height="25" viewBox="0 0 24 25" fill="none" xmlns="http://www.w3.org/2000/svg">
<path d="M3 16L8 12L13 16L21 8" stroke="#6988FF" stroke-width="1.5" stroke-linecap="round"/>
<path d="M6.5 12C6.5 11.1716 7.1715 10.5 8.00005 10.5C8.8285 10.5 9.5 11.1716 9.5 12C9.5 12.8284 8.8285 13.5 8.00005 13.5C7.1715 13.5 6.5 12.8284 6.5 12Z" fill="#6988FF"/>
<path d="M11.5 16C11.5 15.1716 12.1715 14.5 13 14.5C13.8285 14.5 14.5 15.1716 14.5 16C14.5 16.8284 13.8285 17.5 13 17.5C12.1715 17.5 11.5 16.8284 11.5 16Z" fill="#6988FF"/>
<path d="M19 8.5C19 7.67165 19.6715 7 20.5 7C21.3285 7 22 7.67165 22 8.5C22 9.32835 21.3285 10 20.5 10C19.6715 10 19 9.32835 19 8.5Z" fill="#6988FF"/>
<path d="M1.5 16C1.5 15.1716 2.1715 14.5 3.00005 14.5C3.8285 14.5 4.5 15.1716 4.5 16C4.5 16.8284 3.8285 17.5 3.00005 17.5C2.1715 17.5 1.5 16.8284 1.5 16Z" fill="#6988FF"/>
</svg>
