<svg width="24" height="25" viewBox="0 0 24 25" fill="none" xmlns="http://www.w3.org/2000/svg">
<path d="M21 17.4998V20.5002C21 21.0563 20.5552 21.5 20.0066 21.5H3.9934C3.44495 21.5 3 21.0524 3 20.5002V17.4998C3 16.9437 3.44476 16.5 3.9934 16.5H20.0066C20.5551 16.5 21 16.9476 21 17.4998Z" fill="#6FDB73"/>
<path d="M11 4.49981V7.50019C11 8.05628 10.5536 8.5 10.003 8.5H3.99703C3.45304 8.5 3 8.05237 3 7.50019V4.49981C3 3.94372 3.44639 3.5 3.99703 3.5H10.003C10.547 3.5 11 3.94763 11 4.49981Z" fill="#FF5959"/>
<path d="M18 10.9998V14.0002C18 14.5563 17.5489 15 16.9925 15H4.00748C3.44892 15 3 14.5524 3 14.0002V10.9998C3 10.4437 3.45107 10 4.00748 10H16.9925C17.5511 10 18 10.4476 18 10.9998Z" fill="#F9CF6D"/>
</svg>
