<svg width="24" height="25" viewBox="0 0 24 25" fill="none" xmlns="http://www.w3.org/2000/svg">
<path fill-rule="evenodd" clip-rule="evenodd" d="M4.47513 2.68532L6.69543 3.31278C6.79856 3.34194 6.90816 3.33868 7.00939 3.30346L7.96448 2.97126C8.07713 2.93209 8.19976 2.93258 8.3121 2.97271L10.3919 3.71549C10.4531 3.73734 10.5177 3.74759 10.5827 3.74576L12.294 3.69686C12.3891 3.69412 12.4817 3.66548 12.5617 3.61402L12.8777 3.41088C13.0796 3.28109 13.344 3.30544 13.5188 3.46993L13.7155 3.6551C13.9527 3.87839 13.9302 4.26195 13.6683 4.45591L13.051 4.91324C12.8318 5.07555 12.7743 5.37911 12.9188 5.61044L13.1333 5.95362C13.1906 6.04526 13.2748 6.11691 13.3745 6.15867L14.1823 6.49742C14.5384 6.64674 14.9279 6.37182 14.9065 5.98632L14.8769 5.45353C14.8584 5.12185 15.15 4.85731 15.4784 4.90783L16.7758 5.10741C16.9301 5.13116 17.0657 5.22259 17.1455 5.35674L18.1079 6.97358C18.2705 7.24671 18.1538 7.60049 17.8606 7.72322L16.1565 8.43659C16.0635 8.47548 15.9838 8.54045 15.9269 8.6236L15.288 9.55743L14.6554 10.5695C14.5335 10.7646 14.2983 10.8571 14.0761 10.7973L13.232 10.57C13.0836 10.53 12.925 10.5574 12.7985 10.645L12.6179 10.77C12.4159 10.9099 12.3385 11.1717 12.4321 11.3989L12.5096 11.5872C12.6002 11.8072 12.8261 11.94 13.0623 11.9122L13.3011 11.8841C13.4791 11.8632 13.6449 11.9777 13.6883 12.1515L13.731 12.3224C13.7543 12.4156 13.8321 12.4825 13.9237 12.4949L13.9801 12.4955C14.1475 12.4769 14.2984 12.5969 14.3181 12.7642L14.3372 12.9262C14.3671 13.1802 14.6179 13.3465 14.8635 13.2752L15.7834 13.0081C16.0052 12.9437 16.2423 12.9553 16.4568 13.0411L18.6392 13.9141L19.03 14.5219C19.1026 14.6348 19.2106 14.7203 19.3372 14.765L20.457 15.1602C20.7772 15.2732 20.9414 15.6278 20.8205 15.9451L20.229 17.4978C20.1764 17.6359 20.0749 17.75 19.9439 17.8184L18.9632 18.33C18.8967 18.3647 18.8374 18.4114 18.788 18.4679L17.0326 20.474C16.9513 20.5669 16.9004 20.6824 16.8868 20.8051L16.772 21.8385C16.7152 22.3493 16.0873 22.5605 15.7334 22.188C15.6267 22.0757 15.5672 21.9267 15.5672 21.7718V19.3375C15.5672 19.2967 15.5714 19.2561 15.5795 19.2161L15.9515 17.403C15.9907 17.2116 15.935 17.0129 15.8018 16.8698L14.7315 15.7203C14.591 15.5694 14.5372 15.3573 14.5887 15.1576L14.8652 14.0862C14.9109 13.9091 14.7854 13.7337 14.6031 13.7197L14.57 13.7171C14.3538 13.7005 14.1578 13.5835 14.0405 13.401L13.887 13.1623C13.7816 12.9983 13.6228 12.8757 13.4374 12.8154L11.3223 12.1268L8.87778 9.25712C8.79719 9.16254 8.75297 9.04234 8.75297 8.91809V7.85027C8.75297 7.72637 8.70896 7.60651 8.62879 7.51204L7.28192 5.92467C7.22111 5.85299 7.14209 5.79904 7.05323 5.76849L5.67821 5.29586C5.50638 5.23678 5.31619 5.27117 5.17594 5.3867L4.69506 5.78266C4.5456 5.90577 4.34035 5.93617 4.16162 5.86168L3.65828 5.65196C3.39704 5.54313 3.27487 5.25037 3.36678 4.99384L3.40544 4.90998C3.49985 4.7448 3.49704 4.54131 3.3981 4.37876L3.07636 3.8502C2.91571 3.58629 3.01776 3.24137 3.29615 3.10735L4.10615 2.71735C4.22112 2.66201 4.35233 2.65062 4.47513 2.68532ZM14.8494 2.17328C14.8885 2.17238 14.927 2.17964 14.9627 2.19433L15.0138 2.22187L16.4485 3.19937C16.4782 3.21959 16.5036 3.24525 16.5235 3.27482L16.5489 3.32192L16.9289 4.21988C17.0071 4.40476 16.8723 4.60128 16.6846 4.60963L16.6203 4.60517L15.6985 4.43756C15.5242 4.40588 15.4278 4.22626 15.4837 4.06868L15.5119 4.01095C15.5885 3.89065 15.5614 3.73625 15.4584 3.64773L15.4007 3.60942L13.7845 2.80133C13.7292 2.77367 13.6668 2.76533 13.607 2.77659L13.5486 2.7944L12.7231 3.14818C12.6146 3.19464 12.4915 3.16771 12.4122 3.08666L12.3703 3.03169L12.1484 2.65138C12.0527 2.48734 12.1448 2.28552 12.3165 2.23929L12.3844 2.22962L14.8494 2.17328ZM8.9247 2.16441C9.03663 2.03215 9.21085 1.97499 9.37589 2.01018L9.45731 2.03556L10.105 2.30477C10.1549 2.32548 10.2077 2.33726 10.2613 2.33979L10.3417 2.33659L10.8415 2.27312C10.9694 2.25691 11.0968 2.29467 11.1944 2.3747L11.2616 2.44246L11.3001 2.49032C11.5273 2.77236 11.3571 3.18205 11.0194 3.23914L10.9386 3.24584H9.97139C9.92686 3.24584 9.88269 3.23944 9.84021 3.22694L9.77791 3.20366L9.08569 2.88634C8.8063 2.75828 8.7262 2.399 8.9247 2.16441Z" fill="#DDDDDD"/>
<path fill-rule="evenodd" clip-rule="evenodd" d="M10.247 4.66504C11.1764 4.66504 11.9301 5.44429 11.9301 6.40553L11.9255 6.53149L11.9124 6.65494L11.9071 6.68969C11.716 7.94463 10.7375 9.50677 10.247 10.2753L10.0289 9.94593C9.48605 9.10202 8.74339 7.76475 8.58122 6.65494C8.56975 6.57355 8.56396 6.4902 8.56396 6.40553C8.56396 5.44429 9.31757 4.66504 10.247 4.66504ZM20.8603 13.132C20.8603 12.1708 20.1066 11.3915 19.1771 11.3915C18.2477 11.3915 17.4941 12.1708 17.4941 13.132C17.4941 13.2167 17.4999 13.3001 17.5114 13.3814C17.6735 14.4913 18.4162 15.8285 18.959 16.6724L19.1771 17.0018C19.6677 16.2333 20.6461 14.6711 20.8373 13.4162L20.8556 13.258L20.8603 13.132ZM18.3528 13.1216C18.3528 12.6446 18.7269 12.2566 19.1867 12.2566C19.6465 12.2566 20.0206 12.6446 20.0206 13.1216C20.0206 13.5986 19.6465 13.9866 19.1867 13.9866C18.7269 13.9866 18.3528 13.5986 18.3528 13.1216ZM9.42262 6.39511C9.42262 5.9181 9.79672 5.5301 10.2565 5.5301C10.7163 5.5301 11.0904 5.9181 11.0904 6.39511C11.0904 6.8721 10.7163 7.2601 10.2565 7.2601C9.79672 7.2601 9.42262 6.8721 9.42262 6.39511Z" fill="#FF5959"/>
</svg>
