<svg width="24" height="25" viewBox="0 0 24 25" fill="none" xmlns="http://www.w3.org/2000/svg">
<path d="M20.5967 18.4092C21.8643 16.8719 22.625 14.9024 22.625 12.7542C22.625 11.5882 22.3979 10.4759 21.9907 9.45496L13.7287 12.7542L20.5967 18.4092Z" fill="#D4D6DC"/>
<path d="M21.8047 8.54093C21.1076 6.79868 19.8818 5.32623 18.3231 4.32166L13.4655 11.8715L21.8047 8.54093Z" fill="#BDBFC4"/>
<path d="M11.9995 12.5L16.8697 4.93253C15.4651 4.02703 13.7946 3.5 11.9995 3.5C7.02922 3.5 3 7.52872 3 12.5C3 17.4708 7.02922 21.5 11.9995 21.5C14.7982 21.5 17.2977 20.2228 18.9481 18.2204L11.9995 12.5Z" fill="#6988FF"/>
</svg>
