<svg width="24" height="25" viewBox="0 0 24 25" fill="none" xmlns="http://www.w3.org/2000/svg">
<path d="M3 11.5H21V16.5H3L3 11.5Z" fill="#BBBBBB"/>
<path d="M3 16.5H21V20.5C21 21.0523 20.5523 21.5 20 21.5H4C3.44772 21.5 3 21.0523 3 20.5V16.5Z" fill="#D4D6DC"/>
<path d="M3 6.5H21V11.5H3L3 6.5Z" fill="#D4D6DC"/>
<path d="M6 6.5V21.5H4C3.44772 21.5 3 21.0523 3 20.5V4.5C3 3.94772 3.44772 3.5 4 3.5H20C20.5523 3.5 21 3.94772 21 4.5V6.5H6Z" fill="#6988FF"/>
<path d="M16.9285 9V8C16.3762 8 15.9285 8.44772 15.9285 9H16.9285ZM16.9285 9H15.9285C15.9285 9.55228 16.3762 10 16.9285 10V9ZM19.5001 9H16.9285V10H19.5001V9ZM19.5001 9V10C20.0524 10 20.5001 9.55228 20.5001 9H19.5001ZM19.5001 9H20.5001C20.5001 8.44772 20.0524 8 19.5001 8V9ZM16.9285 9H19.5001V8H16.9285V9ZM16.9285 14V13C16.3762 13 15.9285 13.4477 15.9285 14H16.9285ZM16.9285 14H15.9285C15.9285 14.5523 16.3762 15 16.9285 15V14ZM19.5001 14H16.9285V15H19.5001V14ZM19.5001 14V15C20.0524 15 20.5001 14.5523 20.5001 14H19.5001ZM19.5001 14H20.5001C20.5001 13.4477 20.0524 13 19.5001 13V14ZM16.9285 14H19.5001V13H16.9285V14ZM12.2137 18C11.6615 18 11.2137 18.4477 11.2137 19H12.2137V18ZM14.7854 18H12.2137V19H14.7854V18ZM15.7854 19C15.7854 18.4477 15.3377 18 14.7854 18V19H15.7854ZM14.7854 20C15.3377 20 15.7854 19.5523 15.7854 19H14.7854V20ZM12.2137 20H14.7854V19H12.2137V20ZM11.2137 19C11.2137 19.5523 11.6615 20 12.2137 20V19H11.2137ZM16.9285 18C16.3762 18 15.9285 18.4477 15.9285 19H16.9285V18ZM19.5001 18H16.9285V19H19.5001V18ZM20.5001 19C20.5001 18.4477 20.0524 18 19.5001 18V19H20.5001ZM19.5001 20C20.0524 20 20.5001 19.5523 20.5001 19H19.5001V20ZM16.9285 20H19.5001V19H16.9285V20ZM15.9285 19C15.9285 19.5523 16.3762 20 16.9285 20V19H15.9285ZM12.2137 13C11.6615 13 11.2137 13.4477 11.2137 14H12.2137V13ZM14.7854 13H12.2137V14H14.7854V13ZM15.7854 14C15.7854 13.4477 15.3377 13 14.7854 13V14H15.7854ZM14.7854 15C15.3377 15 15.7854 14.5523 15.7854 14H14.7854V15ZM12.2137 15H14.7854V14H12.2137V15ZM11.2137 14C11.2137 14.5523 11.6615 15 12.2137 15V14H11.2137ZM12.2137 8C11.6615 8 11.2137 8.44772 11.2137 9H12.2137V8ZM14.7854 8H12.2137V9H14.7854V8ZM15.7854 9C15.7854 8.44772 15.3377 8 14.7854 8V9H15.7854ZM14.7854 10C15.3377 10 15.7854 9.55228 15.7854 9H14.7854V10ZM12.2137 10H14.7854V9H12.2137V10ZM11.2137 9C11.2137 9.55228 11.6615 10 12.2137 10V9H11.2137ZM7.49902 19V18C6.94674 18 6.49902 18.4477 6.49902 19H7.49902ZM7.49902 19H6.49902C6.49902 19.5523 6.94674 20 7.49902 20V19ZM10.0707 19H7.49902V20H10.0707V19ZM10.0707 19V20C10.623 20 11.0707 19.5523 11.0707 19H10.0707ZM10.0707 19H11.0707C11.0707 18.4477 10.623 18 10.0707 18V19ZM7.49902 19H10.0707V18H7.49902V19ZM7.49902 13C6.94674 13 6.49902 13.4477 6.49902 14H7.49902V13ZM10.0707 13H7.49902V14H10.0707V13ZM11.0707 14C11.0707 13.4477 10.623 13 10.0707 13V14H11.0707ZM10.0707 15C10.623 15 11.0707 14.5523 11.0707 14H10.0707V15ZM7.49902 15H10.0707V14H7.49902V15ZM6.49902 14C6.49902 14.5523 6.94674 15 7.49902 15V14H6.49902ZM7.49902 9V8C6.94674 8 6.49902 8.44772 6.49902 9H7.49902ZM7.49902 9H6.49902C6.49902 9.55228 6.94674 10 7.49902 10V9ZM10.0707 9H7.49902V10H10.0707V9ZM10.0707 9V10C10.623 10 11.0707 9.55228 11.0707 9H10.0707ZM10.0707 9H11.0707C11.0707 8.44772 10.623 8 10.0707 8V9ZM7.49902 9H10.0707V8H7.49902V9Z" fill="#5E5F62"/>
</svg>
