<svg width="24" height="25" viewBox="0 0 24 25" fill="none" xmlns="http://www.w3.org/2000/svg">
<circle cx="12" cy="12.5" r="9" stroke="#D4D6DC" stroke-width="1.5" stroke-linecap="round" stroke-linejoin="round"/>
<circle cx="12" cy="12.5" r="5" stroke="#D4D6DC" stroke-width="1.5" stroke-linecap="round" stroke-linejoin="round"/>
<circle cx="12" cy="12.5" r="1" stroke="#D4D6DC" stroke-width="1.5" stroke-linecap="round" stroke-linejoin="round"/>
<path d="M8 9.5L4 16.5L13 19.5L16 6.5L20 9.5" stroke="#6988FF" stroke-linecap="round"/>
<path d="M6.42188 9.5C6.42188 8.67165 7.09337 8 7.92192 8C8.75038 8 9.42188 8.67165 9.42188 9.5C9.42188 10.3284 8.75038 11 7.92192 11C7.09337 11 6.42188 10.3284 6.42188 9.5Z" fill="#6988FF"/>
<path d="M2.5 16.3881C2.5 15.5597 3.1715 14.8881 4.00005 14.8881C4.8285 14.8881 5.5 15.5597 5.5 16.3881C5.5 17.2164 4.8285 17.8881 4.00005 17.8881C3.1715 17.8881 2.5 17.2164 2.5 16.3881Z" fill="#6988FF"/>
<path d="M11.5 19.3881C11.5 18.5597 12.1715 17.8881 13 17.8881C13.8285 17.8881 14.5 18.5597 14.5 19.3881C14.5 20.2164 13.8285 20.8881 13 20.8881C12.1715 20.8881 11.5 20.2164 11.5 19.3881Z" fill="#6988FF"/>
<path d="M14.5 6.5C14.5 5.67165 15.1715 5 16 5C16.8285 5 17.5 5.67165 17.5 6.5C17.5 7.32835 16.8285 8 16 8C15.1715 8 14.5 7.32835 14.5 6.5Z" fill="#6988FF"/>
<path d="M18.9399 9.5C18.9399 8.67165 19.6114 8 20.44 8C21.2684 8 21.9399 8.67165 21.9399 9.5C21.9399 10.3284 21.2684 11 20.44 11C19.6114 11 18.9399 10.3284 18.9399 9.5Z" fill="#6988FF"/>
</svg>
