<svg width="24" height="25" viewBox="0 0 24 25" fill="none" xmlns="http://www.w3.org/2000/svg">
<circle cx="12" cy="12.5" r="9" stroke="#D4D6DC" stroke-width="1.5" stroke-linecap="round" stroke-linejoin="round"/>
<circle cx="12" cy="12.5" r="5" stroke="#D4D6DC" stroke-width="1.5" stroke-linecap="round" stroke-linejoin="round"/>
<circle cx="12" cy="12.5" r="1" stroke="#D4D6DC" stroke-width="1.5" stroke-linecap="round" stroke-linejoin="round"/>
<path d="M8 9.5L4 17.5L16 20.5L21 10.5L10 3.5L8 9.5Z" stroke="#6988FF" stroke-linecap="round"/>
<path d="M8.66943 3.5C8.66943 2.67165 9.34093 2 10.1695 2C10.9979 2 11.6694 2.67165 11.6694 3.5C11.6694 4.32835 10.9979 5 10.1695 5C9.34093 5 8.66943 4.32835 8.66943 3.5Z" fill="#6988FF"/>
<path d="M2.67188 17.1841C2.67188 16.3557 3.34337 15.6841 4.17192 15.6841C5.00038 15.6841 5.67188 16.3557 5.67188 17.1841C5.67188 18.0124 5.00038 18.6841 4.17192 18.6841C3.34337 18.6841 2.67188 18.0124 2.67188 17.1841Z" fill="#6988FF"/>
<path d="M14.4307 20.5C14.4307 19.6716 15.1022 19 15.9307 19C16.7592 19 17.4307 19.6716 17.4307 20.5C17.4307 21.3284 16.7592 22 15.9307 22C15.1022 22 14.4307 21.3284 14.4307 20.5Z" fill="#6988FF"/>
<path d="M19.5 10.5C19.5 9.67165 20.1715 9 21 9C21.8285 9 22.5 9.67165 22.5 10.5C22.5 11.3284 21.8285 12 21 12C20.1715 12 19.5 11.3284 19.5 10.5Z" fill="#6988FF"/>
<path d="M6.18262 9.92651C6.18262 9.09816 6.85412 8.42651 7.68267 8.42651C8.51112 8.42651 9.18262 9.09816 9.18262 9.92651C9.18262 10.7549 8.51112 11.4265 7.68267 11.4265C6.85412 11.4265 6.18262 10.7549 6.18262 9.92651Z" fill="#6988FF"/>
</svg>
