<svg width="24" height="25" viewBox="0 0 24 25" fill="none" xmlns="http://www.w3.org/2000/svg">
<path d="M10.5 20C10.5 19.1716 11.1715 18.5 12 18.5C12.8285 18.5 13.5 19.1716 13.5 20C13.5 20.8284 12.8285 21.5 12 21.5C11.1715 21.5 10.5 20.8284 10.5 20Z" fill="#6988FF"/>
<path d="M10.5 15C10.5 14.1716 11.1715 13.5 12 13.5C12.8285 13.5 13.5 14.1716 13.5 15C13.5 15.8284 12.8285 16.5 12 16.5C11.1715 16.5 10.5 15.8284 10.5 15Z" fill="#6988FF"/>
<path d="M10.5 5C10.5 4.17165 11.1715 3.5 12 3.5C12.8285 3.5 13.5 4.17165 13.5 5C13.5 5.82835 12.8285 6.5 12 6.5C11.1715 6.5 10.5 5.82835 10.5 5Z" fill="#6988FF"/>
<path d="M3 12C3 11.1716 3.6715 10.5 4.50005 10.5C5.3285 10.5 6 11.1716 6 12C6 12.8284 5.3285 13.5 4.50005 13.5C3.6715 13.5 3 12.8284 3 12Z" fill="#6988FF"/>
<path d="M3 18C3 17.1716 3.6715 16.5 4.50005 16.5C5.3285 16.5 6 17.1716 6 18C6 18.8284 5.3285 19.5 4.50005 19.5C3.6715 19.5 3 18.8284 3 18Z" fill="#6988FF"/>
<path d="M18 14C18 13.1716 18.6715 12.5 19.5 12.5C20.3285 12.5 21 13.1716 21 14C21 14.8284 20.3285 15.5 19.5 15.5C18.6715 15.5 18 14.8284 18 14Z" fill="#6988FF"/>
<path d="M18 10C18 9.17165 18.6715 8.5 19.5 8.5C20.3285 8.5 21 9.17165 21 10C21 10.8284 20.3285 11.5 19.5 11.5C18.6715 11.5 18 10.8284 18 10Z" fill="#6988FF"/>
</svg>
