<svg width="24" height="25" viewBox="0 0 24 25" fill="none" xmlns="http://www.w3.org/2000/svg">
<path d="M4 3.5H20C20.5523 3.5 21 3.94772 21 4.5V12.5H3V4.5C3 3.94772 3.44772 3.5 4 3.5Z" fill="#BDBFC4"/>
<path d="M3 12.5H21V20.5C21 21.0523 20.5523 21.5 20 21.5H4C3.44772 21.5 3 21.0523 3 20.5V12.5Z" fill="#D4D6DC"/>
<path d="M8.5 9.5L12.1364 6.5L14.8636 9.5L18.5 6.5" stroke="#5E5F62" stroke-width="1.5" stroke-linecap="round" stroke-linejoin="round"/>
<path d="M8.5 18.5L12.1364 15.5L14.8636 18.5L18.5 15.5" stroke="#5E5F62" stroke-width="1.5" stroke-linecap="round" stroke-linejoin="round"/>
<path d="M3 20.5L3 4.5C3 3.94772 3.44772 3.5 4 3.5H6V21.5H4C3.44772 21.5 3 21.0523 3 20.5Z" fill="#6988FF"/>
</svg>
