<svg width="24" height="25" viewBox="0 0 24 25" fill="none" xmlns="http://www.w3.org/2000/svg">
<path d="M3 15.6667C3 15.6667 3 9.83333 7.5 9.83333C12 9.83333 10.875 17.3333 15.375 17.3333C19.875 17.3333 21 6.5 21 6.5V21.5H3V15.6667Z" fill="#D4D6DC"/>
<path d="M3 15.8077C3 15.8077 3 9.88462 7.5 9.88462C12 9.88462 10.875 17.5 15.375 17.5C19.875 17.5 21 6.5 21 6.5" stroke="#6988FF" stroke-width="1.5" stroke-linecap="round"/>
<path d="M19.2627 7.32568C19.2627 6.49733 19.9342 5.82568 20.7627 5.82568C21.5912 5.82568 22.2627 6.49733 22.2627 7.32568C22.2627 8.15403 21.5912 8.82568 20.7627 8.82568C19.9342 8.82568 19.2627 8.15403 19.2627 7.32568Z" fill="#6988FF"/>
<path d="M14.2642 17.5C14.2642 16.6716 14.9357 16 15.7642 16C16.5927 16 17.2642 16.6716 17.2642 17.5C17.2642 18.3284 16.5927 19 15.7642 19C14.9357 19 14.2642 18.3284 14.2642 17.5Z" fill="#6988FF"/>
<path d="M5.41211 9.99622C5.41211 9.16787 6.08361 8.49622 6.91216 8.49622C7.74061 8.49622 8.41211 9.16787 8.41211 9.99622C8.41211 10.8246 7.74061 11.4962 6.91216 11.4962C6.08361 11.4962 5.41211 10.8246 5.41211 9.99622Z" fill="#6988FF"/>
<path d="M1.5 15.5C1.5 14.6716 2.1715 14 3.00005 14C3.8285 14 4.5 14.6716 4.5 15.5C4.5 16.3284 3.8285 17 3.00005 17C2.1715 17 1.5 16.3284 1.5 15.5Z" fill="#6988FF"/>
</svg>
