<svg width="24" height="25" viewBox="0 0 24 25" fill="none" xmlns="http://www.w3.org/2000/svg">
<path d="M21 20.5002C21 21.0524 20.5551 21.5 20.0067 21.5H3.99524C3.44666 21.5 3.00195 21.0563 3.00195 20.5002L3.00195 17.4998C3.00195 16.9476 3.44685 16.5 3.99524 16.5L20.0067 16.5C20.5553 16.5 21 16.9437 21 17.4998V20.5002Z" fill="#6988FF"/>
<path d="M15.002 16.5V21.5H10.002V16.5H15.002Z" fill="#D4D6DC"/>
<path d="M10.002 16.5V21.5H4.00195C3.44967 21.5 3.00195 21.0523 3.00195 20.5L3.00195 17.5C3.00195 16.9477 3.44967 16.5 4.00195 16.5H10.002Z" fill="#BDBFC4"/>
<path d="M18.002 14.0002C18.002 14.5524 17.553 15 16.9945 15H4.00944C3.45302 15 3.00195 14.5563 3.00195 14.0002L3.00195 10.9998C3.00195 10.4476 3.45087 10 4.00944 10L16.9945 10C17.5509 10 18.002 10.4437 18.002 10.9998V14.0002Z" fill="#6988FF"/>
<path d="M13.002 10V15H8.00195V10L13.002 10Z" fill="#D4D6DC"/>
<path d="M8.00195 10V15H4.00195C3.44967 15 3.00195 14.5523 3.00195 14L3.00195 11C3.00195 10.4477 3.44967 10 4.00195 10H8.00195Z" fill="#BDBFC4"/>
<path d="M15.002 7.50019C15.002 8.05237 14.5462 8.5 13.9995 8.5H4.00443C3.45078 8.5 3.00195 8.05628 3.00195 7.50019L3.00195 4.49981C3.00195 3.94763 3.45771 3.5 4.00443 3.5L13.9995 3.5C14.5531 3.5 15.002 3.94372 15.002 4.49981V7.50019Z" fill="#6988FF"/>
<path d="M11.002 3.5V8.5H7.00195L7.00195 3.5L11.002 3.5Z" fill="#D4D6DC"/>
<path d="M7.00195 3.5V8.5H4.00195C3.44967 8.5 3.00195 8.05228 3.00195 7.5L3.00195 4.5C3.00195 3.94772 3.44967 3.5 4.00195 3.5L7.00195 3.5Z" fill="#BDBFC4"/>
</svg>
