<svg width="24" height="25" viewBox="0 0 24 25" fill="none" xmlns="http://www.w3.org/2000/svg">
<path d="M3 12.5481C3 12.5177 3.01381 12.489 3.03753 12.47L7.9457 8.54344C7.97834 8.51732 8.02378 8.51427 8.05962 8.53577L12.3128 11.0877C12.7224 11.3334 13.2437 11.2868 13.6031 10.9723L20.6683 4.79024C20.7976 4.67709 21 4.76892 21 4.94075V20.5C21 21.0523 20.5523 21.5 20 21.5H4C3.44772 21.5 3 21.0523 3 20.5V12.5481Z" fill="#6988FF" stroke="#6988FF" stroke-width="1.5" stroke-linecap="round"/>
<path d="M21 20.5C21 21.0523 20.5523 21.5 20 21.5H4C3.44772 21.5 3 21.0523 3 20.5V16.5L7.96464 14.0254C7.98736 14.0141 8.01353 14.0118 8.03785 14.0191L12.5679 15.3711C12.8426 15.4531 13.1394 15.4132 13.3827 15.2616L21 10.5155V20.5Z" fill="#DDDDDD" stroke="#DDDDDD" stroke-width="1.5" stroke-linecap="round"/>
<path d="M21 20.5C21 21.0523 20.5523 21.5 20 21.5H4C3.44772 21.5 3 21.0523 3 20.5V19.6904L7.97456 17.8292C7.99122 17.8229 8.00924 17.8213 8.02676 17.8243L12.7471 18.6464C12.913 18.6752 13.0835 18.6618 13.2428 18.6072L21 15.9489V20.5Z" fill="#BBBBBB" stroke="#BBBBBB" stroke-width="1.5" stroke-linecap="round"/>
</svg>
