<svg width="24" height="25" viewBox="0 0 24 25" fill="none" xmlns="http://www.w3.org/2000/svg">
<path d="M3 16.5H9V3.5H15V10.5H21V21.5H3V16.5Z" fill="#D4D6DC"/>
<path d="M3 16.5H9V3.5H15V10.5H21" stroke="#6988FF" stroke-width="1.5" stroke-linecap="round"/>
<path d="M19.5 10.3666C19.5 9.53823 20.1715 8.86658 21 8.86658C21.8285 8.86658 22.5 9.53823 22.5 10.3666C22.5 11.1949 21.8285 11.8666 21 11.8666C20.1715 11.8666 19.5 11.1949 19.5 10.3666Z" fill="#6988FF"/>
<path d="M13.5337 10.3666C13.5337 9.53823 14.2052 8.86658 15.0337 8.86658C15.8622 8.86658 16.5337 9.53823 16.5337 10.3666C16.5337 11.1949 15.8622 11.8666 15.0337 11.8666C14.2052 11.8666 13.5337 11.1949 13.5337 10.3666Z" fill="#6988FF"/>
<path d="M13.5337 3.5C13.5337 2.67165 14.2052 2 15.0337 2C15.8622 2 16.5337 2.67165 16.5337 3.5C16.5337 4.32835 15.8622 5 15.0337 5C14.2052 5 13.5337 4.32835 13.5337 3.5Z" fill="#6988FF"/>
<path d="M7.56689 3.5C7.56689 2.67165 8.23839 2 9.06694 2C9.89539 2 10.5669 2.67165 10.5669 3.5C10.5669 4.32835 9.89539 5 9.06694 5C8.23839 5 7.56689 4.32835 7.56689 3.5Z" fill="#6988FF"/>
<path d="M7.56689 16.5C7.56689 15.6716 8.23839 15 9.06694 15C9.89539 15 10.5669 15.6716 10.5669 16.5C10.5669 17.3284 9.89539 18 9.06694 18C8.23839 18 7.56689 17.3284 7.56689 16.5Z" fill="#6988FF"/>
<path d="M1.5 16.5C1.5 15.6716 2.1715 15 3.00005 15C3.8285 15 4.5 15.6716 4.5 16.5C4.5 17.3284 3.8285 18 3.00005 18C2.1715 18 1.5 17.3284 1.5 16.5Z" fill="#6988FF"/>
</svg>
