<svg width="24" height="25" viewBox="0 0 24 25" fill="none" xmlns="http://www.w3.org/2000/svg">
<path d="M3 18.5H9V5.5H15V12.5H20" stroke="#6988FF" stroke-width="1.5" stroke-linecap="round"/>
<path d="M19.5 12.3666C19.5 11.5382 20.1715 10.8666 21 10.8666C21.8285 10.8666 22.5 11.5382 22.5 12.3666C22.5 13.1949 21.8285 13.8666 21 13.8666C20.1715 13.8666 19.5 13.1949 19.5 12.3666Z" fill="#6988FF"/>
<path d="M13.5337 12.3666C13.5337 11.5382 14.2052 10.8666 15.0337 10.8666C15.8622 10.8666 16.5337 11.5382 16.5337 12.3666C16.5337 13.1949 15.8622 13.8666 15.0337 13.8666C14.2052 13.8666 13.5337 13.1949 13.5337 12.3666Z" fill="#6988FF"/>
<path d="M13.5337 5.5C13.5337 4.67165 14.2052 4 15.0337 4C15.8622 4 16.5337 4.67165 16.5337 5.5C16.5337 6.32835 15.8622 7 15.0337 7C14.2052 7 13.5337 6.32835 13.5337 5.5Z" fill="#6988FF"/>
<path d="M7.56689 5.5C7.56689 4.67165 8.23839 4 9.06694 4C9.89539 4 10.5669 4.67165 10.5669 5.5C10.5669 6.32835 9.89539 7 9.06694 7C8.23839 7 7.56689 6.32835 7.56689 5.5Z" fill="#6988FF"/>
<path d="M7.56689 18.5C7.56689 17.6716 8.23839 17 9.06694 17C9.89539 17 10.5669 17.6716 10.5669 18.5C10.5669 19.3284 9.89539 20 9.06694 20C8.23839 20 7.56689 19.3284 7.56689 18.5Z" fill="#6988FF"/>
<path d="M1.5 18.5C1.5 17.6716 2.1715 17 3.00005 17C3.8285 17 4.5 17.6716 4.5 18.5C4.5 19.3284 3.8285 20 3.00005 20C2.1715 20 1.5 19.3284 1.5 18.5Z" fill="#6988FF"/>
</svg>
