<svg width="24" height="25" viewBox="0 0 24 25" fill="none" xmlns="http://www.w3.org/2000/svg">
<circle cx="21.5996" cy="12.5" r="1.5" fill="#6FDB73"/>
<path fill-rule="evenodd" clip-rule="evenodd" d="M12.9062 16.1473H7.73547V15.1214L10.1758 12.5205C10.5108 12.1544 10.7586 11.8349 10.9193 11.562C11.0799 11.2892 11.1602 11.0301 11.1602 10.7849C11.1602 10.4498 11.0755 10.1864 10.9063 9.99475C10.737 9.80304 10.4953 9.70719 10.1809 9.70719C9.84245 9.70719 9.57562 9.82377 9.38047 10.0569C9.18531 10.2901 9.08773 10.5966 9.08773 10.9766H7.58522C7.58522 10.5172 7.69488 10.0975 7.91422 9.71756C8.13355 9.33761 8.44355 9.0397 8.84422 8.82382C9.2449 8.60794 9.6991 8.5 10.2069 8.5C10.984 8.5 11.5876 8.68652 12.0176 9.05956C12.4477 9.4326 12.6627 9.95934 12.6627 10.6398C12.6627 11.0128 12.566 11.3928 12.3725 11.7796C12.1791 12.1665 11.8475 12.6172 11.3778 13.1319L9.66284 14.9401H12.9062V16.1473ZM5.28481 16.1473H3.78748V10.3756L2 10.9299V9.71238L5.1242 8.59326H5.28481V16.1473ZM16.1444 11.7123H15.3465V12.8832H16.1392C16.9682 12.8832 17.3827 13.2597 17.3827 14.0127C17.3827 14.3235 17.2816 14.5731 17.0796 14.7614C16.8775 14.9496 16.5986 15.0437 16.2428 15.0437C15.932 15.0437 15.6703 14.9539 15.4579 14.7743C15.2455 14.5947 15.1393 14.3633 15.1393 14.08H13.6419C13.6419 14.7329 13.8811 15.2579 14.3595 15.6551C14.8379 16.0523 15.4536 16.2509 16.2066 16.2509C17.0114 16.2509 17.6581 16.0489 18.1469 15.6447C18.6356 15.2406 18.88 14.7035 18.88 14.0334C18.88 13.6189 18.7755 13.2597 18.5665 12.9557C18.3576 12.6518 18.0407 12.4238 17.6158 12.2718C17.9578 12.1164 18.2341 11.8936 18.4448 11.6035C18.6555 11.3133 18.7608 10.9956 18.7608 10.6502C18.7608 9.98006 18.5346 9.45419 18.0821 9.07251C17.6296 8.69083 17.0044 8.5 16.2066 8.5C15.7472 8.5 15.3266 8.58808 14.945 8.76424C14.5633 8.94039 14.2662 9.18477 14.0538 9.49736C13.8414 9.80995 13.7352 10.1631 13.7352 10.5569H15.2325C15.2325 10.3047 15.3292 10.1001 15.5227 9.94293C15.7161 9.78577 15.9561 9.70719 16.2428 9.70719C16.5606 9.70719 16.8102 9.79182 16.9915 9.96107C17.1728 10.1303 17.2635 10.3669 17.2635 10.6709C17.2635 10.9852 17.172 11.2373 16.9889 11.4273C16.8058 11.6173 16.5243 11.7123 16.1444 11.7123Z" fill="#D4D6DC"/>
</svg>
