<svg width="24" height="25" viewBox="0 0 24 25" fill="none" xmlns="http://www.w3.org/2000/svg">
<path d="M3 4.5C3 3.94772 3.44772 3.5 4 3.5H20C20.5523 3.5 21 3.94772 21 4.5V20.5C21 21.0523 20.5523 21.5 20 21.5H4C3.44772 21.5 3 21.0523 3 20.5V4.5Z" fill="#D4D6DC"/>
<path d="M3 20.5L3 4.5C3 3.94772 3.44772 3.5 4 3.5H6V21.5H4C3.44772 21.5 3 21.0523 3 20.5Z" fill="#6988FF"/>
<path fill-rule="evenodd" clip-rule="evenodd" d="M14.8987 14.3531C15.1533 14.0194 15.2806 13.5543 15.2806 12.9579V12.9029C15.2806 12.2973 15.1515 11.8277 14.8935 11.4939C14.6354 11.1601 14.2793 10.9933 13.8251 10.9933C13.4513 10.9933 13.1496 11.1275 12.9202 11.3958V9.5H11.9259V14.785H12.8205L12.8652 14.3893C13.106 14.6989 13.4283 14.8538 13.832 14.8538C14.2885 14.8538 14.644 14.6869 14.8987 14.3531ZM10.3053 14.785C10.2594 14.6955 10.2261 14.5842 10.2055 14.4512C9.96465 14.7196 9.65155 14.8538 9.26619 14.8538C8.90147 14.8538 8.59926 14.7483 8.35956 14.5372C8.11985 14.3262 8 14.0601 8 13.739C8 13.3444 8.14623 13.0417 8.43869 12.8306C8.73116 12.6196 9.15379 12.5129 9.7066 12.5106H10.1642V12.2973C10.1642 12.1253 10.1201 11.9876 10.0317 11.8844C9.94344 11.7812 9.80409 11.7296 9.6137 11.7296C9.44625 11.7296 9.31493 11.7697 9.21974 11.85C9.12454 11.9303 9.07695 12.0404 9.07695 12.1803H8.08258C8.08258 11.9647 8.1491 11.7651 8.28214 11.5816C8.41518 11.3981 8.60327 11.2542 8.84642 11.1498C9.08956 11.0455 9.36253 10.9933 9.66531 10.9933C10.1241 10.9933 10.4882 11.1085 10.7577 11.3391C11.0273 11.5696 11.162 11.8936 11.162 12.3111V13.9248C11.1643 14.278 11.2136 14.5452 11.31 14.7265V14.785H10.3053ZM9.48295 14.0934C9.62976 14.0934 9.76509 14.0607 9.88896 13.9953C10.0128 13.9299 10.1046 13.8422 10.1642 13.7321V13.0921H9.79262C9.29486 13.0921 9.02992 13.2642 8.99781 13.6082L8.99437 13.6667C8.99437 13.7906 9.03795 13.8927 9.12512 13.9729C9.21228 14.0532 9.33156 14.0934 9.48295 14.0934ZM14.2862 12.8857C14.2862 12.5095 14.2266 12.2348 14.1073 12.0616C13.988 11.8884 13.8102 11.8018 13.574 11.8018C13.2574 11.8018 13.0395 11.9314 12.9202 12.1906V13.6598C13.0418 13.9213 13.262 14.0521 13.5809 14.0521C13.902 14.0521 14.113 13.8938 14.214 13.5773C14.2621 13.4259 14.2862 13.1953 14.2862 12.8857ZM17.8886 13.9007C17.774 14.0016 17.6249 14.0521 17.4414 14.0521C17.2028 14.0521 17.025 13.9684 16.908 13.8009C16.7911 13.6335 16.7326 13.3582 16.7326 12.9751V12.8719C16.7326 12.4934 16.7916 12.2199 16.9098 12.0513C17.0279 11.8827 17.2028 11.7984 17.4345 11.7984C17.6226 11.7984 17.774 11.8586 17.8886 11.979C18.0033 12.0995 18.063 12.256 18.0676 12.4487H19C18.9954 12.0083 18.8526 11.6556 18.5716 11.3907C18.2906 11.1257 17.9173 10.9933 17.4517 10.9933C16.9195 10.9933 16.5009 11.1642 16.1958 11.5059C15.8907 11.8477 15.7382 12.3053 15.7382 12.8788V12.9442C15.7382 13.5406 15.8919 14.0079 16.1992 14.3463C16.5066 14.6846 16.9264 14.8538 17.4586 14.8538C17.743 14.8538 18.0028 14.7959 18.2379 14.68C18.473 14.5642 18.6582 14.4013 18.7936 14.1914C18.9289 13.9815 18.9977 13.7504 19 13.4981H18.0676C18.063 13.6656 18.0033 13.7998 17.8886 13.9007Z" fill="#5E5F62"/>
</svg>
