<svg width="24" height="25" viewBox="0 0 24 25" fill="none" xmlns="http://www.w3.org/2000/svg">
<path d="M4 5.5H20C20.5523 5.5 21 5.84822 21 6.27778V18.7222C21 19.1518 20.5523 19.5 20 19.5H4C3.44772 19.5 3 19.1518 3 18.7222V6.27778C3 5.84822 3.44772 5.5 4 5.5Z" fill="#D4D6DC"/>
<path d="M4 5.5H20C20.5523 5.5 21 5.94772 21 6.5V8.5H3V6.5C3 5.94772 3.44772 5.5 4 5.5Z" fill="#6988FF"/>
<path d="M18.9754 6.84559C19.0607 7.10802 18.9169 7.3902 18.6548 7.47536C18.392 7.56077 18.1098 7.41697 18.0246 7.15455C17.9393 6.89221 18.083 6.60992 18.3459 6.52451C18.608 6.43935 18.8902 6.58326 18.9754 6.84559Z" fill="#635D63"/>
<path d="M16.9754 6.84559C17.0607 7.10802 16.9169 7.3902 16.6548 7.47536C16.392 7.56077 16.1098 7.41697 16.0246 7.15455C15.9393 6.89221 16.083 6.60992 16.3459 6.52451C16.608 6.43935 16.8902 6.58326 16.9754 6.84559Z" fill="#635D63"/>
<path d="M14.9754 6.84559C15.0607 7.10802 14.9169 7.3902 14.6548 7.47536C14.392 7.56077 14.1098 7.41697 14.0246 7.15455C13.9393 6.89221 14.083 6.60992 14.3459 6.52451C14.608 6.43935 14.8902 6.58326 14.9754 6.84559Z" fill="#635D63"/>
</svg>
